# xmcd
#
# Track frame offsets: 
#        182
#        16945
#        34715
#        45325
#
# Disc length: 769 seconds
#
# Revision: 1
# Processed by: cddbd v1.5.2PL0 Copyright (c) Steve Scherf et al.
# Submitted via: ExactAudioCopyFreeDBPlugin 1.0
#
DISCID=2102ff04
DTITLE=Mick Abrahams' Blodwyn Pig - Going Down - Goodbye
DYEAR=1996
DGENRE=Blues
TTITLE0=Going Down (radio edit)
TTITLE1=Goodbye (radio edit)
TTITLE2=Hound Dog (prev. unissued)
TTITLE3=Drive Me (prev. unissued)
EXTD=YEAR: 1996
EXTT0=
EXTT1=
EXTT2=
EXTT3=
PLAYORDER=
